# xmcd CD database file
#
# Track frame offsets:
#	150
#	13695
#	27457
#	37330
#	49747
#	63850
#	76817
#	95127
#	111767
#	126712
#	138367
#	155692
#	171415
#
# Disc length: 2462 seconds
#
# Revision: 1
# Processed by: cddbd v1.5.1PL2 Copyright (c) Steve Scherf et al.
# Submitted via: CDex 1.51
#
DISCID=bb099c0d
DTITLE=Cluster Pluckers - Bluegrass Gospel Favorites
DYEAR=2002
DGENRE=Bluegrass
TTITLE0=What A Friend We Have In Jesus
TTITLE1=Pass Me Not
TTITLE2=There Is Power In The Blood
TTITLE3=Lily Of The Valley
TTITLE4=O Come Angel Band
TTITLE5=In The Sweet By And By
TTITLE6=Softly And Tenderly
TTITLE7=He Leadeth Me
TTITLE8=Where We'll Never Grow Old
TTITLE9=Tis So Sweet To Trust In Jesus
TTITLE10=When They Ring Those Golden Bells
TTITLE11=Sweet Hour Of Prayer
TTITLE12=Keep On The Sunny Side
EXTD=YEAR: 2002
EXTT0=
EXTT1=
EXTT2=
EXTT3=
EXTT4=
EXTT5=
EXTT6=
EXTT7=
EXTT8=
EXTT9=
EXTT10=
EXTT11=
EXTT12=
PLAYORDER=
